<?xml version="1.0" encoding="utf-8"?>
<!-- Generator: Adobe Illustrator 18.0.0, SVG Export Plug-In . SVG Version: 6.00 Build 0)  -->
<!DOCTYPE svg PUBLIC "-//W3C//DTD SVG 1.1//EN" "http://www.w3.org/Graphics/SVG/1.1/DTD/svg11.dtd">
<svg version="1.1" id="Layer_1" xmlns="http://www.w3.org/2000/svg" xmlns:xlink="http://www.w3.org/1999/xlink" x="0px" y="0px"
	 viewBox="0 0 199.8 36" enable-background="new 0 0 199.8 36" xml:space="preserve">
<path fill="#20313D" d="M27.9,36H8.1C3.6,36,0,32.3,0,27.9V8.1C0,3.6,3.6,0,8.1,0h19.8C32.3,0,36,3.6,36,8.1v19.8
	C36,32.3,32.3,36,27.9,36z"/>
<g>
	<g>
		<path fill="#FFFFFF" d="M12.7,23.9H19v3H9.1V9.1h3.6L12.7,23.9L12.7,23.9L12.7,23.9z"/>
		<path fill="#FFFFFF" d="M22.5,22l3-12.9h4l-5.1,17.8h-3.7L15.5,9.1h4L22.5,22z"/>
	</g>
</g>
<text transform="matrix(1 0 0 1 45.786 15.9375)"><tspan x="0" y="0" fill="#20313D" font-family="'RobotoCondensed-Bold'" font-size="16">LEONARDO VALDETARO</tspan><tspan x="155.9" y="0" fill="#20313D" font-family="'RobotoCondensed-Bold'" font-size="16">      </tspan><tspan x="0" y="17" fill="#20313D" font-family="'RobotoCondensed-Light'" font-size="14">FRONTEND &amp; UI DESIGNER</tspan></text>
</svg>
