<?xml version="1.0" encoding="utf-8"?>
<!-- Generator: Adobe Illustrator 18.0.0, SVG Export Plug-In . SVG Version: 6.00 Build 0)  -->
<!DOCTYPE svg PUBLIC "-//W3C//DTD SVG 1.1//EN" "http://www.w3.org/Graphics/SVG/1.1/DTD/svg11.dtd">
<svg version="1.1" id="Layer_1" xmlns="http://www.w3.org/2000/svg" xmlns:xlink="http://www.w3.org/1999/xlink" x="0px" y="0px"
	 viewBox="122.4 367.3 459.6 102.7" enable-background="new 122.4 367.3 459.6 102.7" xml:space="preserve">
<g enable-background="new    ">
	<path fill="#20313D" d="M131.1,404.7h12v5.7h-18.9v-33.9h6.8V404.7z"/>
	<path fill="#20313D" d="M164.6,395.7h-10.7v9h12.6v5.7h-19.5v-33.9h19.4v5.7h-12.6v8h10.7V395.7z"/>
	<path fill="#20313D" d="M194.4,396.4c0,4.5-1.1,8.1-3.2,10.6c-2.1,2.5-5.1,3.8-8.9,3.8c-3.8,0-6.8-1.2-9-3.7
		c-2.2-2.5-3.3-6-3.3-10.5v-5.8c0-4.7,1.1-8.3,3.2-10.9c2.2-2.6,5.2-3.9,9-3.9c3.8,0,6.7,1.3,8.9,3.9c2.2,2.6,3.3,6.2,3.3,10.8
		V396.4z M187.5,390.8c0-3.1-0.4-5.3-1.3-6.8c-0.9-1.5-2.2-2.2-4.1-2.2c-1.8,0-3.2,0.7-4,2.2c-0.9,1.4-1.3,3.6-1.4,6.6v6
		c0,3,0.4,5.1,1.3,6.6c0.9,1.4,2.2,2.1,4.1,2.1c1.8,0,3.1-0.7,4-2.1c0.9-1.4,1.3-3.5,1.3-6.4V390.8z"/>
	<path fill="#20313D" d="M223,410.3h-6.8l-10-22.2v22.2h-6.8v-33.9h6.8l10,22.3v-22.3h6.8V410.3z"/>
	<path fill="#20313D" d="M245.1,403.4h-9.3l-1.8,6.9h-7.2l10.6-33.9h6.3l10.7,33.9h-7.3L245.1,403.4z M237.2,397.7h6.3l-3.2-12.1
		L237.2,397.7z"/>
	<path fill="#20313D" d="M267.6,397.9h-3.4v12.4h-6.8v-33.9h10.9c3.4,0,6.1,0.9,7.9,2.7c1.9,1.8,2.8,4.3,2.8,7.6
		c0,4.5-1.6,7.7-4.9,9.5l5.9,13.9v0.3h-7.4L267.6,397.9z M264.2,392.2h3.9c1.4,0,2.4-0.5,3.1-1.4s1-2.1,1-3.6c0-3.4-1.3-5.1-4-5.1
		h-4V392.2z"/>
	<path fill="#20313D" d="M283.7,410.3v-33.9h9c4,0,7.1,1.3,9.5,3.8s3.5,6,3.6,10.3v5.5c0,4.5-1.2,7.9-3.5,10.5
		c-2.4,2.5-5.6,3.8-9.7,3.8H283.7z M290.6,382.1v22.5h2c2.3,0,3.9-0.6,4.8-1.8c0.9-1.2,1.4-3.3,1.5-6.2v-5.9c0-3.2-0.4-5.4-1.3-6.6
		c-0.9-1.2-2.4-1.9-4.5-2H290.6z"/>
	<path fill="#20313D" d="M334.5,396.4c0,4.5-1.1,8.1-3.2,10.6c-2.1,2.5-5.1,3.8-8.9,3.8c-3.8,0-6.8-1.2-9-3.7
		c-2.2-2.5-3.3-6-3.3-10.5v-5.8c0-4.7,1.1-8.3,3.2-10.9c2.2-2.6,5.2-3.9,9-3.9c3.8,0,6.7,1.3,8.9,3.9c2.2,2.6,3.3,6.2,3.3,10.8
		V396.4z M327.7,390.8c0-3.1-0.4-5.3-1.3-6.8c-0.9-1.5-2.2-2.2-4.1-2.2c-1.8,0-3.2,0.7-4,2.2c-0.9,1.4-1.3,3.6-1.4,6.6v6
		c0,3,0.4,5.1,1.3,6.6c0.9,1.4,2.3,2.1,4.1,2.1c1.8,0,3.1-0.7,4-2.1c0.9-1.4,1.3-3.5,1.3-6.4V390.8z"/>
	<path fill="#20313D" d="M361.5,401l5.7-24.6h7.6l-9.8,33.9h-7.1l-9.7-33.9h7.6L361.5,401z"/>
	<path fill="#20313D" d="M392.4,403.4h-9.3l-1.8,6.9H374l10.6-33.9h6.3l10.7,33.9h-7.3L392.4,403.4z M384.6,397.7h6.3l-3.2-12.1
		L384.6,397.7z"/>
	<path fill="#20313D" d="M411.6,404.7h12v5.7h-18.9v-33.9h6.8V404.7z"/>
	<path fill="#20313D" d="M427.5,410.3v-33.9h9c4,0,7.1,1.3,9.5,3.8s3.5,6,3.6,10.3v5.5c0,4.5-1.2,7.9-3.5,10.5
		c-2.4,2.5-5.6,3.8-9.7,3.8H427.5z M434.4,382.1v22.5h2c2.3,0,3.9-0.6,4.8-1.8c0.9-1.2,1.4-3.3,1.5-6.2v-5.9c0-3.2-0.4-5.4-1.3-6.6
		c-0.9-1.2-2.4-1.9-4.5-2H434.4z"/>
	<path fill="#20313D" d="M472,395.7h-10.7v9h12.6v5.7h-19.5v-33.9h19.4v5.7h-12.6v8H472V395.7z"/>
	<path fill="#20313D" d="M500.3,382.1h-8.4v28.2H485v-28.2h-8.2v-5.7h23.5V382.1z"/>
	<path fill="#20313D" d="M517.6,403.4h-9.3l-1.8,6.9h-7.2l10.6-33.9h6.3l10.7,33.9h-7.3L517.6,403.4z M509.7,397.7h6.3l-3.2-12.1
		L509.7,397.7z"/>
	<path fill="#20313D" d="M540.1,397.9h-3.4v12.4h-6.8v-33.9h10.9c3.4,0,6.1,0.9,7.9,2.7c1.9,1.8,2.8,4.3,2.8,7.6
		c0,4.5-1.6,7.7-4.9,9.5l5.9,13.9v0.3h-7.4L540.1,397.9z M536.7,392.2h3.9c1.4,0,2.4-0.5,3.1-1.4c0.7-0.9,1-2.1,1-3.6
		c0-3.4-1.3-5.1-4-5.1h-4V392.2z"/>
	<path fill="#20313D" d="M580.1,396.4c0,4.5-1.1,8.1-3.2,10.6c-2.1,2.5-5.1,3.8-8.9,3.8c-3.8,0-6.8-1.2-9-3.7
		c-2.2-2.5-3.3-6-3.3-10.5v-5.8c0-4.7,1.1-8.3,3.2-10.9c2.2-2.6,5.2-3.9,9-3.9c3.8,0,6.7,1.3,8.9,3.9c2.2,2.6,3.3,6.2,3.3,10.8
		V396.4z M573.3,390.8c0-3.1-0.4-5.3-1.3-6.8c-0.9-1.5-2.2-2.2-4.1-2.2c-1.8,0-3.2,0.7-4,2.2c-0.9,1.4-1.3,3.6-1.4,6.6v6
		c0,3,0.4,5.1,1.3,6.6c0.9,1.4,2.3,2.1,4.1,2.1c1.8,0,3.1-0.7,4-2.1c0.9-1.4,1.3-3.5,1.3-6.4V390.8z"/>
</g>
<g enable-background="new    ">
	<path fill="#20313D" d="M139.1,447.9h-11.9v14.5h-2.4v-31h16.2v2.3h-13.7v12h11.9V447.9z"/>
	<path fill="#20313D" d="M155.8,449.5h-7.3v12.9h-2.5v-31h8.5c2.8,0,5,0.8,6.6,2.4c1.6,1.6,2.3,3.9,2.3,6.7c0,2-0.5,3.8-1.4,5.3
		c-1,1.5-2.3,2.6-3.9,3.1l6.5,13.2v0.3H162L155.8,449.5z M148.5,447.2h6.5c1.8,0,3.3-0.6,4.4-1.9c1.1-1.3,1.6-2.9,1.6-4.8
		c0-2.2-0.6-3.9-1.7-5.1c-1.1-1.2-2.7-1.8-4.8-1.8h-6V447.2z"/>
	<path fill="#20313D" d="M189.4,450.2c0,4-0.9,7.1-2.6,9.3c-1.8,2.2-4.2,3.3-7.4,3.3c-3.1,0-5.6-1.1-7.4-3.3
		c-1.8-2.2-2.7-5.3-2.7-9.2v-6.8c0-4,0.9-7.1,2.7-9.3c1.8-2.2,4.2-3.3,7.4-3.3c3.2,0,5.7,1.1,7.4,3.3c1.8,2.2,2.6,5.3,2.6,9.4V450.2
		z M186.9,443.5c0-3.4-0.7-5.9-2-7.7c-1.3-1.7-3.2-2.6-5.7-2.6c-2.4,0-4.2,0.8-5.6,2.5c-1.3,1.7-2,4.2-2,7.5v7c0,3.4,0.7,6,2,7.7
		c1.4,1.7,3.2,2.6,5.6,2.6c2.5,0,4.4-0.9,5.6-2.6c1.3-1.7,1.9-4.3,1.9-7.7V443.5z"/>
	<path fill="#20313D" d="M215.4,462.4H213L198.3,436v26.4h-2.5v-31h2.5l14.7,26.5v-26.5h2.4V462.4z"/>
	<path fill="#20313D" d="M239.9,433.7h-8.8v28.7h-2.5v-28.7h-8.8v-2.3h20.1V433.7z"/>
	<path fill="#20313D" d="M259.4,447.5h-12v12.6h13.9v2.3h-16.3v-31h16.2v2.3h-13.8v11.6h12V447.5z"/>
	<path fill="#20313D" d="M286.2,462.4h-2.4L269.1,436v26.4h-2.5v-31h2.5l14.7,26.5v-26.5h2.4V462.4z"/>
	<path fill="#20313D" d="M293.5,462.4v-31h7.3c3.4,0,6,1.1,8,3.2c2,2.2,3,5.1,3,8.9v6.5c0,3.9-1,6.9-3,9.1c-2,2.2-4.8,3.3-8.3,3.3
		H293.5z M296,433.7v26.5h4.7c2.8,0,4.9-0.9,6.4-2.6c1.5-1.7,2.3-4.2,2.3-7.3v-6.5c0-3.2-0.7-5.7-2.2-7.4s-3.6-2.6-6.5-2.6H296z"/>
	<path fill="#20313D" d="M332.2,445.5c-1.1-1.6-1.9-3-2.4-4.2c-0.4-1.2-0.7-2.3-0.7-3.3c0-2.2,0.6-3.9,1.7-5.2
		c1.1-1.3,2.6-1.9,4.4-1.9c1.7,0,3,0.6,4.1,1.7c1.1,1.1,1.6,2.6,1.6,4.4c0,2.1-0.9,4-2.8,5.9l-3,2.8l7,9.8c1-2,1.5-4.4,1.5-6.9h2.2
		c0,3.5-0.8,6.5-2.3,8.9l3.6,5h-2.9l-2.2-3c-0.9,1.1-2,1.9-3.2,2.5c-1.2,0.6-2.5,0.9-3.8,0.9c-2.5,0-4.4-0.8-5.9-2.3
		c-1.5-1.5-2.2-3.5-2.2-6.1c0-1.5,0.4-2.9,1.1-4.3C328.8,448.9,330.2,447.3,332.2,445.5z M335.1,460.6c2.2,0,4.1-1,5.8-3.1l-7.2-10
		l-0.2-0.3l-0.8,0.7c-2.3,2.2-3.4,4.4-3.4,6.5c0,1.9,0.5,3.4,1.6,4.5C331.9,460,333.3,460.6,335.1,460.6z M331.6,437.9
		c0,1.7,0.8,3.7,2.4,6l2.2-2c0.8-0.7,1.4-1.4,1.8-2.1c0.5-0.8,0.7-1.7,0.7-2.7c0-1.1-0.3-2-0.9-2.8c-0.6-0.7-1.5-1.1-2.5-1.1
		c-1.1,0-2,0.4-2.7,1.3C331.9,435.3,331.6,436.5,331.6,437.9z"/>
	<path fill="#20313D" d="M379.5,431.3v22c0,3-0.8,5.3-2.4,7c-1.6,1.6-3.9,2.5-6.8,2.5c-3,0-5.3-0.8-6.9-2.4c-1.6-1.6-2.4-4-2.4-7.1
		v-21.9h2.4v21.9c0,4.9,2.3,7.4,6.8,7.4c4.5,0,6.7-2.4,6.8-7.1v-22.1H379.5z"/>
	<path fill="#20313D" d="M389.3,462.4h-2.4v-31h2.4V462.4z"/>
	<path fill="#20313D" d="M406.9,462.4v-31h7.3c3.4,0,6,1.1,8,3.2c2,2.2,3,5.1,3,8.9v6.5c0,3.9-1,6.9-3,9.1c-2,2.2-4.8,3.3-8.3,3.3
		H406.9z M409.3,433.7v26.5h4.7c2.8,0,4.9-0.9,6.4-2.6c1.5-1.7,2.3-4.2,2.3-7.3v-6.5c0-3.2-0.7-5.7-2.2-7.4s-3.6-2.6-6.5-2.6H409.3z
		"/>
	<path fill="#20313D" d="M446.2,447.5h-12v12.6H448v2.3h-16.3v-31h16.2v2.3h-13.8v11.6h12V447.5z"/>
	<path fill="#20313D" d="M468.1,454.8c0-1.7-0.5-3.1-1.5-4.1c-1-1-2.8-1.9-5.5-2.9c-2.7-0.9-4.7-1.9-5.9-3.1
		c-1.7-1.5-2.5-3.4-2.5-5.8c0-2.4,0.8-4.3,2.5-5.8c1.6-1.5,3.7-2.2,6.3-2.2c2.6,0,4.8,0.9,6.5,2.6c1.7,1.7,2.5,4,2.5,6.7h-2.5
		c0-2.1-0.6-3.8-1.8-5.1c-1.2-1.3-2.8-1.9-4.8-1.9c-2,0-3.5,0.5-4.6,1.6c-1.1,1.1-1.7,2.4-1.7,4.1c0,1.6,0.5,2.8,1.6,3.8
		c1.1,1,2.8,1.9,5.1,2.7c2.3,0.8,4.1,1.6,5.3,2.4c1.2,0.8,2.1,1.8,2.6,2.9c0.6,1.1,0.9,2.4,0.9,4c0,2.4-0.8,4.4-2.5,5.9
		c-1.6,1.5-3.8,2.2-6.5,2.2c-1.8,0-3.5-0.4-5-1.1c-1.5-0.7-2.7-1.8-3.5-3.2c-0.8-1.4-1.3-3.1-1.3-5h2.4c0,2.2,0.7,3.9,2,5.2
		c1.3,1.3,3.1,1.9,5.4,1.9c2,0,3.5-0.5,4.7-1.6C467.5,457.9,468.1,456.5,468.1,454.8z"/>
	<path fill="#20313D" d="M478.9,462.4h-2.4v-31h2.4V462.4z"/>
	<path fill="#20313D" d="M505.6,458.8c-1,1.3-2.3,2.3-3.9,3c-1.6,0.7-3.3,1-5.2,1c-3.2,0-5.7-1.1-7.5-3.2c-1.8-2.1-2.8-5.1-2.8-8.9
		v-7.5c0-4,0.9-7,2.6-9.1c1.7-2.1,4.2-3.2,7.4-3.2c2.9,0,5.1,0.8,6.7,2.4c1.6,1.6,2.5,3.9,2.7,6.8h-2.4c-0.3-2.4-1-4.1-2.1-5.2
		c-1.1-1.1-2.8-1.7-4.9-1.7c-2.5,0-4.4,0.8-5.7,2.5c-1.3,1.7-1.9,4.2-1.9,7.4v7.2c0,3.2,0.7,5.8,2.1,7.5c1.4,1.8,3.3,2.7,5.8,2.7
		c2.7,0,4.9-0.9,6.7-2.6v-8.1h-6.8v-2.3h9.3V458.8z"/>
	<path fill="#20313D" d="M532.2,462.4h-2.4L515.1,436v26.4h-2.5v-31h2.5l14.7,26.5v-26.5h2.4V462.4z"/>
	<path fill="#20313D" d="M554,447.5h-12v12.6h13.9v2.3h-16.3v-31h16.2v2.3H542v11.6h12V447.5z"/>
	<path fill="#20313D" d="M570.9,449.5h-7.3v12.9h-2.5v-31h8.5c2.8,0,5,0.8,6.6,2.4c1.6,1.6,2.3,3.9,2.3,6.7c0,2-0.5,3.8-1.5,5.3
		c-1,1.5-2.3,2.6-3.9,3.1l6.5,13.2v0.3h-2.6L570.9,449.5z M563.6,447.2h6.5c1.8,0,3.3-0.6,4.4-1.9c1.1-1.3,1.6-2.9,1.6-4.8
		c0-2.2-0.6-3.9-1.7-5.1c-1.1-1.2-2.7-1.8-4.8-1.8h-6V447.2z"/>
</g>
</svg>
