<?xml version="1.0" encoding="utf-8"?>
<!-- Generator: Adobe Illustrator 18.0.0, SVG Export Plug-In . SVG Version: 6.00 Build 0)  -->
<!DOCTYPE svg PUBLIC "-//W3C//DTD SVG 1.1 Basic//EN" "http://www.w3.org/Graphics/SVG/1.1/DTD/svg11-basic.dtd">
<svg version="1.1" baseProfile="basic" xmlns="http://www.w3.org/2000/svg" xmlns:xlink="http://www.w3.org/1999/xlink" x="0px"
	 y="0px" viewBox="0 0 19.587 15.587" xml:space="preserve">
<g id="Layer_1">
</g>
<g id="Layer_2">
	<path style="display:none;" d="M19.501,8.14l-0.753,0.899c-0.065,0.073-0.15,0.118-0.255,0.134h-0.036
		c-0.106,0-0.191-0.028-0.255-0.085l-8.407-7.01l-8.407,7.01C1.289,9.153,1.192,9.181,1.095,9.173
		C0.989,9.156,0.904,9.112,0.84,9.039L0.086,8.14C0.021,8.059-0.007,7.964,0.001,7.854c0.008-0.109,0.053-0.196,0.133-0.261
		L8.87,0.316C9.129,0.105,9.437,0,9.793,0c0.356,0,0.664,0.105,0.924,0.316l2.964,2.478V0.425c0-0.113,0.036-0.207,0.109-0.28
		c0.073-0.073,0.166-0.109,0.28-0.109h2.333c0.113,0,0.207,0.036,0.279,0.109c0.073,0.073,0.109,0.166,0.109,0.28v4.957l2.661,2.211
		c0.081,0.065,0.126,0.152,0.134,0.261C19.594,7.964,19.565,8.059,19.501,8.14z M16.792,8.978v5.832
		c0,0.211-0.077,0.393-0.231,0.547c-0.154,0.154-0.336,0.231-0.547,0.231h-4.665v-4.665h-3.11v4.665H3.573
		c-0.211,0-0.393-0.077-0.547-0.231c-0.154-0.154-0.231-0.336-0.231-0.547V8.978c0-0.008,0.002-0.02,0.006-0.036
		c0.004-0.016,0.006-0.028,0.006-0.036l6.986-5.759l6.986,5.759C16.787,8.922,16.792,8.946,16.792,8.978z"/>
	<path style="display:none;" d="M9.151,2.013v3.854c0,0.348-0.127,0.649-0.382,0.903C8.515,7.024,8.214,7.151,7.866,7.151H2.728
		c-0.348,0-0.649-0.127-0.903-0.381C1.57,6.516,1.443,6.215,1.443,5.867V2.013c0-0.348,0.127-0.649,0.381-0.903
		C2.079,0.855,2.38,0.728,2.728,0.728h5.139c0.348,0,0.649,0.127,0.903,0.381C9.024,1.364,9.151,1.665,9.151,2.013z M9.151,9.721
		v3.854c0,0.348-0.127,0.649-0.382,0.903c-0.254,0.254-0.555,0.381-0.903,0.381H2.728c-0.348,0-0.649-0.127-0.903-0.381
		c-0.254-0.254-0.381-0.555-0.381-0.903V9.721c0-0.348,0.127-0.649,0.381-0.903C2.079,8.563,2.38,8.436,2.728,8.436h5.139
		c0.348,0,0.649,0.127,0.903,0.381C9.024,9.072,9.151,9.373,9.151,9.721z M18.144,2.013v3.854c0,0.348-0.127,0.649-0.382,0.903
		c-0.254,0.254-0.555,0.381-0.903,0.381H11.72c-0.348,0-0.649-0.127-0.903-0.381c-0.254-0.254-0.381-0.555-0.381-0.903V2.013
		c0-0.348,0.127-0.649,0.381-0.903c0.254-0.254,0.555-0.381,0.903-0.381h5.139c0.348,0,0.649,0.127,0.903,0.381
		C18.017,1.364,18.144,1.665,18.144,2.013z M18.144,9.721v3.854c0,0.348-0.127,0.649-0.382,0.903
		c-0.254,0.254-0.555,0.381-0.903,0.381H11.72c-0.348,0-0.649-0.127-0.903-0.381c-0.254-0.254-0.381-0.555-0.381-0.903V9.721
		c0-0.348,0.127-0.649,0.381-0.903c0.254-0.254,0.555-0.381,0.903-0.381h5.139c0.348,0,0.649,0.127,0.903,0.381
		C18.017,9.072,18.144,9.373,18.144,9.721z"/>
	<path style="display:none;" d="M5.769,1.422v2.012c0,0.28-0.098,0.517-0.293,0.713C5.28,4.343,5.043,4.44,4.763,4.44H1.41
		c-0.28,0-0.517-0.098-0.713-0.293C0.502,3.951,0.404,3.714,0.404,3.434V1.422c0-0.279,0.098-0.517,0.293-0.713
		C0.893,0.514,1.131,0.416,1.41,0.416h3.353c0.279,0,0.517,0.098,0.713,0.293C5.671,0.905,5.769,1.143,5.769,1.422z M5.769,6.788
		V8.8c0,0.28-0.098,0.517-0.293,0.712C5.28,9.708,5.043,9.806,4.763,9.806H1.41c-0.28,0-0.517-0.098-0.713-0.293
		C0.502,9.317,0.404,9.079,0.404,8.8V6.788c0-0.28,0.098-0.517,0.293-0.713C0.893,5.88,1.131,5.782,1.41,5.782h3.353
		c0.279,0,0.517,0.098,0.713,0.293C5.671,6.271,5.769,6.508,5.769,6.788z M5.769,12.153v2.012c0,0.28-0.098,0.517-0.293,0.713
		c-0.196,0.196-0.433,0.293-0.713,0.293H1.41c-0.28,0-0.517-0.098-0.713-0.293c-0.196-0.195-0.293-0.433-0.293-0.713v-2.012
		c0-0.279,0.098-0.517,0.293-0.712c0.195-0.196,0.433-0.293,0.713-0.293h3.353c0.279,0,0.517,0.098,0.713,0.293
		C5.671,11.636,5.769,11.874,5.769,12.153z M12.476,1.422v2.012c0,0.28-0.098,0.517-0.293,0.713C11.987,4.343,11.75,4.44,11.47,4.44
		H8.117c-0.28,0-0.517-0.098-0.713-0.293C7.209,3.951,7.111,3.714,7.111,3.434V1.422c0-0.279,0.098-0.517,0.293-0.713
		C7.6,0.514,7.837,0.416,8.117,0.416h3.353c0.279,0,0.517,0.098,0.713,0.293C12.378,0.905,12.476,1.143,12.476,1.422z M12.476,6.788
		V8.8c0,0.28-0.098,0.517-0.293,0.712c-0.196,0.196-0.433,0.293-0.713,0.293H8.117c-0.28,0-0.517-0.098-0.713-0.293
		C7.209,9.317,7.111,9.079,7.111,8.8V6.788c0-0.28,0.098-0.517,0.293-0.713C7.6,5.88,7.837,5.782,8.117,5.782h3.353
		c0.279,0,0.517,0.098,0.713,0.293C12.378,6.271,12.476,6.508,12.476,6.788z M12.476,12.153v2.012c0,0.28-0.098,0.517-0.293,0.713
		c-0.196,0.196-0.433,0.293-0.713,0.293H8.117c-0.28,0-0.517-0.098-0.713-0.293c-0.196-0.195-0.293-0.433-0.293-0.713v-2.012
		c0-0.279,0.098-0.517,0.293-0.712c0.196-0.196,0.433-0.293,0.713-0.293h3.353c0.279,0,0.517,0.098,0.713,0.293
		C12.378,11.636,12.476,11.874,12.476,12.153z M19.183,1.422v2.012c0,0.28-0.098,0.517-0.293,0.713
		c-0.196,0.196-0.433,0.293-0.713,0.293h-3.353c-0.28,0-0.517-0.098-0.713-0.293c-0.196-0.196-0.293-0.433-0.293-0.713V1.422
		c0-0.279,0.098-0.517,0.293-0.713c0.196-0.195,0.433-0.293,0.713-0.293h3.353c0.28,0,0.517,0.098,0.713,0.293
		C19.085,0.905,19.183,1.143,19.183,1.422z M19.183,6.788V8.8c0,0.28-0.098,0.517-0.293,0.712c-0.196,0.196-0.433,0.293-0.713,0.293
		h-3.353c-0.28,0-0.517-0.098-0.713-0.293c-0.196-0.195-0.293-0.433-0.293-0.712V6.788c0-0.28,0.098-0.517,0.293-0.713
		c0.196-0.195,0.433-0.293,0.713-0.293h3.353c0.28,0,0.517,0.098,0.713,0.293C19.085,6.271,19.183,6.508,19.183,6.788z
		 M19.183,12.153v2.012c0,0.28-0.098,0.517-0.293,0.713c-0.196,0.196-0.433,0.293-0.713,0.293h-3.353
		c-0.28,0-0.517-0.098-0.713-0.293c-0.196-0.195-0.293-0.433-0.293-0.713v-2.012c0-0.279,0.098-0.517,0.293-0.712
		c0.196-0.196,0.433-0.293,0.713-0.293h3.353c0.28,0,0.517,0.098,0.713,0.293C19.085,11.636,19.183,11.874,19.183,12.153z"/>
	<path style="display:none;" d="M6.036,1.312c1.147-0.669,2.399-1.004,3.757-1.004c1.358,0,2.61,0.335,3.757,1.004
		c1.147,0.669,2.055,1.577,2.724,2.724c0.669,1.147,1.004,2.399,1.004,3.757s-0.335,2.611-1.004,3.757
		c-0.669,1.147-1.577,2.055-2.724,2.724c-1.147,0.669-2.399,1.004-3.757,1.004c-1.358,0-2.611-0.335-3.757-1.004
		c-1.147-0.669-2.055-1.577-2.724-2.724c-0.669-1.147-1.004-2.399-1.004-3.757s0.335-2.611,1.004-3.757
		C3.981,2.889,4.889,1.981,6.036,1.312z M11.022,9.109l0.175-6.053c0-0.078-0.033-0.136-0.097-0.175
		c-0.065-0.052-0.143-0.078-0.234-0.078H8.721c-0.091,0-0.169,0.026-0.234,0.078C8.422,2.92,8.39,2.979,8.39,3.057l0.166,6.053
		c0,0.065,0.032,0.122,0.097,0.171c0.065,0.049,0.143,0.073,0.234,0.073h1.803c0.091,0,0.167-0.024,0.229-0.073
		C10.981,9.231,11.015,9.175,11.022,9.109z M11.041,12.463v-1.852c0-0.091-0.029-0.167-0.088-0.229
		c-0.059-0.062-0.13-0.093-0.214-0.093H8.868c-0.085,0-0.159,0.033-0.224,0.097c-0.065,0.065-0.097,0.14-0.097,0.224v1.852
		c0,0.085,0.033,0.159,0.097,0.224c0.065,0.065,0.14,0.098,0.224,0.098h1.871c0.084,0,0.156-0.031,0.214-0.093
		C11.012,12.63,11.041,12.554,11.041,12.463z"/>
	<path d="M16.907,5.872v7.765c0,0.349-0.125,0.648-0.373,0.897c-0.249,0.249-0.548,0.373-0.897,0.373H3.95
		c-0.349,0-0.648-0.124-0.897-0.373c-0.249-0.249-0.373-0.548-0.373-0.897V5.872c0-0.079,0.029-0.143,0.087-0.191
		c0.042-0.037,0.145-0.128,0.31-0.274c0.164-0.145,0.274-0.241,0.329-0.286c0.056-0.045,0.176-0.144,0.361-0.298
		c0.185-0.153,0.37-0.3,0.556-0.441c0.185-0.14,0.439-0.333,0.762-0.58c0.323-0.246,0.703-0.529,1.139-0.849
		c0.437-0.32,0.946-0.692,1.528-1.116C7.78,1.818,7.918,1.712,8.17,1.521c0.251-0.191,0.441-0.33,0.568-0.417
		c0.127-0.087,0.296-0.18,0.508-0.278C9.457,0.729,9.64,0.68,9.794,0.68c0.153,0,0.336,0.049,0.548,0.147s0.384,0.192,0.516,0.282
		c0.132,0.09,0.32,0.228,0.564,0.413c0.243,0.185,0.381,0.291,0.413,0.317c0.582,0.424,1.092,0.795,1.528,1.116
		c0.437,0.32,0.816,0.603,1.139,0.849c0.323,0.246,0.577,0.44,0.762,0.58c0.185,0.14,0.37,0.287,0.556,0.441
		c0.185,0.153,0.306,0.253,0.361,0.298c0.056,0.045,0.165,0.14,0.329,0.286c0.164,0.146,0.267,0.237,0.31,0.274
		C16.878,5.729,16.907,5.793,16.907,5.872z M12.43,10.517c1.392-1.011,2.305-1.678,2.739-2.001c0.058-0.042,0.091-0.096,0.099-0.163
		c0.008-0.066-0.009-0.128-0.052-0.187l-0.302-0.413c-0.042-0.058-0.098-0.091-0.167-0.099c-0.069-0.008-0.133,0.009-0.191,0.052
		c-1.223,0.894-2.13,1.556-2.723,1.985c-0.027,0.016-0.164,0.119-0.413,0.31c-0.249,0.191-0.438,0.33-0.568,0.417
		c-0.13,0.087-0.3,0.18-0.512,0.278c-0.212,0.098-0.394,0.147-0.548,0.147c-0.154,0-0.336-0.049-0.548-0.147
		c-0.212-0.098-0.382-0.191-0.512-0.278c-0.13-0.087-0.319-0.226-0.568-0.417C7.917,9.81,7.78,9.707,7.753,9.691
		C6.769,8.982,5.861,8.32,5.03,7.706c-0.058-0.042-0.122-0.06-0.191-0.052C4.77,7.663,4.715,7.696,4.672,7.754L4.371,8.167
		c-0.042,0.058-0.06,0.121-0.052,0.187C4.327,8.42,4.36,8.474,4.418,8.516c0.434,0.323,1.347,0.99,2.739,2.001
		c0.053,0.042,0.185,0.143,0.397,0.302c0.212,0.159,0.384,0.283,0.516,0.373c0.132,0.09,0.302,0.195,0.508,0.313
		c0.206,0.119,0.411,0.208,0.615,0.266c0.204,0.058,0.403,0.087,0.599,0.087c0.196,0,0.396-0.029,0.599-0.087
		c0.204-0.058,0.413-0.149,0.627-0.274c0.215-0.124,0.385-0.229,0.512-0.314c0.127-0.085,0.299-0.21,0.516-0.377
		C12.265,10.64,12.392,10.543,12.43,10.517z"/>
</g>
</svg>
