<?xml version="1.0" encoding="utf-8"?>
<!-- Generator: Adobe Illustrator 18.0.0, SVG Export Plug-In . SVG Version: 6.00 Build 0)  -->
<!DOCTYPE svg PUBLIC "-//W3C//DTD SVG 1.1//EN" "http://www.w3.org/Graphics/SVG/1.1/DTD/svg11.dtd">
<svg version="1.1" id="Layer_1" xmlns="http://www.w3.org/2000/svg" xmlns:xlink="http://www.w3.org/1999/xlink" x="0px" y="0px"
	 viewBox="0 0 199.8 36" enable-background="new 0 0 199.8 36" xml:space="preserve">
<path fill="#20313D" d="M27.9,36H8.1C3.6,36,0,32.3,0,27.9V8.1C0,3.6,3.6,0,8.1,0h19.8C32.3,0,36,3.6,36,8.1v19.8
	C36,32.3,32.3,36,27.9,36z"/>
<g>
	<g>
		<path fill="#FFFFFF" d="M12.7,23.9H19v3H9.1V9.1h3.6L12.7,23.9L12.7,23.9L12.7,23.9z"/>
		<path fill="#FFFFFF" d="M22.5,22l3-12.9h4l-5.1,17.8h-3.7L15.5,9.1h4L22.5,22z"/>
	</g>
</g>
<g>
	<path fill="#20313D" d="M49,14h4v1.9h-6.3V4.6H49V14z"/>
	<path fill="#20313D" d="M60.2,11h-3.6v3h4.2v1.9h-6.5V4.6h6.5v1.9h-4.2v2.7h3.6V11z"/>
	<path fill="#20313D" d="M70.2,11.3c0,1.5-0.4,2.7-1.1,3.6c-0.7,0.8-1.7,1.3-3,1.3c-1.3,0-2.3-0.4-3-1.3c-0.7-0.8-1.1-2-1.1-3.5V9.4
		c0-1.6,0.4-2.8,1.1-3.7c0.7-0.9,1.7-1.3,3-1.3c1.3,0,2.3,0.4,3,1.3c0.7,0.9,1.1,2.1,1.1,3.6V11.3z M67.9,9.4c0-1-0.1-1.8-0.4-2.3
		c-0.3-0.5-0.7-0.8-1.4-0.8c-0.6,0-1.1,0.2-1.4,0.7c-0.3,0.5-0.4,1.2-0.5,2.2v2c0,1,0.1,1.7,0.4,2.2c0.3,0.5,0.8,0.7,1.4,0.7
		c0.6,0,1-0.2,1.3-0.7c0.3-0.5,0.4-1.2,0.4-2.1V9.4z"/>
	<path fill="#20313D" d="M79.8,15.9h-2.3l-3.4-7.5v7.5h-2.3V4.6h2.3l3.4,7.5V4.6h2.3V15.9z"/>
	<path fill="#20313D" d="M87.2,13.6h-3.1l-0.6,2.3h-2.4l3.6-11.4h2.1l3.6,11.4h-2.5L87.2,13.6z M84.6,11.7h2.1l-1.1-4.1L84.6,11.7z"
		/>
	<path fill="#20313D" d="M94.8,11.8h-1.1v4.2h-2.3V4.6H95c1.2,0,2,0.3,2.7,0.9c0.6,0.6,0.9,1.4,0.9,2.5c0,1.5-0.5,2.6-1.6,3.2l2,4.7
		v0.1h-2.5L94.8,11.8z M93.7,9.9H95c0.5,0,0.8-0.2,1-0.5c0.2-0.3,0.3-0.7,0.3-1.2c0-1.1-0.4-1.7-1.3-1.7h-1.3V9.9z"/>
	<path fill="#20313D" d="M100.2,15.9V4.6h3c1.3,0,2.4,0.4,3.2,1.3s1.2,2,1.2,3.5v1.8c0,1.5-0.4,2.7-1.2,3.5s-1.9,1.3-3.3,1.3H100.2z
		 M102.5,6.5V14h0.7c0.8,0,1.3-0.2,1.6-0.6c0.3-0.4,0.5-1.1,0.5-2.1v-2c0-1.1-0.1-1.8-0.4-2.2c-0.3-0.4-0.8-0.6-1.5-0.7H102.5z"/>
	<path fill="#20313D" d="M117.3,11.3c0,1.5-0.4,2.7-1.1,3.6c-0.7,0.8-1.7,1.3-3,1.3c-1.3,0-2.3-0.4-3-1.3c-0.7-0.8-1.1-2-1.1-3.5
		V9.4c0-1.6,0.4-2.8,1.1-3.7c0.7-0.9,1.7-1.3,3-1.3c1.3,0,2.3,0.4,3,1.3c0.7,0.9,1.1,2.1,1.1,3.6V11.3z M115,9.4
		c0-1-0.1-1.8-0.4-2.3c-0.3-0.5-0.7-0.8-1.4-0.8c-0.6,0-1.1,0.2-1.4,0.7c-0.3,0.5-0.4,1.2-0.5,2.2v2c0,1,0.1,1.7,0.4,2.2
		c0.3,0.5,0.8,0.7,1.4,0.7c0.6,0,1-0.2,1.3-0.7c0.3-0.5,0.4-1.2,0.4-2.1V9.4z"/>
	<path fill="#20313D" d="M126.3,12.8l1.9-8.3h2.6l-3.3,11.4h-2.4l-3.3-11.4h2.5L126.3,12.8z"/>
	<path fill="#20313D" d="M136.7,13.6h-3.1l-0.6,2.3h-2.4l3.6-11.4h2.1l3.6,11.4h-2.5L136.7,13.6z M134.1,11.7h2.1l-1.1-4.1
		L134.1,11.7z"/>
	<path fill="#20313D" d="M143.1,14h4v1.9h-6.3V4.6h2.3V14z"/>
	<path fill="#20313D" d="M148.5,15.9V4.6h3c1.3,0,2.4,0.4,3.2,1.3s1.2,2,1.2,3.5v1.8c0,1.5-0.4,2.7-1.2,3.5s-1.9,1.3-3.3,1.3H148.5z
		 M150.8,6.5V14h0.7c0.8,0,1.3-0.2,1.6-0.6c0.3-0.4,0.5-1.1,0.5-2.1v-2c0-1.1-0.1-1.8-0.4-2.2c-0.3-0.4-0.8-0.6-1.5-0.7H150.8z"/>
	<path fill="#20313D" d="M163.4,11h-3.6v3h4.2v1.9h-6.5V4.6h6.5v1.9h-4.2v2.7h3.6V11z"/>
	<path fill="#20313D" d="M172.9,6.5h-2.8v9.5h-2.3V6.5H165V4.6h7.9V6.5z"/>
	<path fill="#20313D" d="M178.7,13.6h-3.1l-0.6,2.3h-2.4l3.6-11.4h2.1l3.6,11.4h-2.5L178.7,13.6z M176.1,11.7h2.1l-1.1-4.1
		L176.1,11.7z"/>
	<path fill="#20313D" d="M186.3,11.8h-1.1v4.2h-2.3V4.6h3.7c1.2,0,2,0.3,2.7,0.9c0.6,0.6,0.9,1.4,0.9,2.5c0,1.5-0.5,2.6-1.6,3.2
		l2,4.7v0.1H188L186.3,11.8z M185.1,9.9h1.3c0.5,0,0.8-0.2,1-0.5s0.3-0.7,0.3-1.2c0-1.1-0.4-1.7-1.3-1.7h-1.3V9.9z"/>
	<path fill="#20313D" d="M199.7,11.3c0,1.5-0.4,2.7-1.1,3.6s-1.7,1.3-3,1.3c-1.3,0-2.3-0.4-3-1.3s-1.1-2-1.1-3.5V9.4
		c0-1.6,0.4-2.8,1.1-3.7c0.7-0.9,1.7-1.3,3-1.3c1.3,0,2.3,0.4,3,1.3c0.7,0.9,1.1,2.1,1.1,3.6V11.3z M197.4,9.4c0-1-0.1-1.8-0.4-2.3
		s-0.7-0.8-1.4-0.8c-0.6,0-1.1,0.2-1.4,0.7c-0.3,0.5-0.4,1.2-0.5,2.2v2c0,1,0.1,1.7,0.4,2.2c0.3,0.5,0.8,0.7,1.4,0.7
		c0.6,0,1-0.2,1.3-0.7s0.4-1.2,0.4-2.1V9.4z"/>
	<path fill="#20313D" d="M51.6,28.3h-3.8v4.6H47V23h5.2v0.7h-4.4v3.8h3.8V28.3z"/>
	<path fill="#20313D" d="M57.2,28.8h-2.3v4.1h-0.8V23h2.7c0.9,0,1.6,0.3,2.1,0.8s0.7,1.2,0.7,2.2c0,0.6-0.2,1.2-0.5,1.7
		s-0.7,0.8-1.3,1l2.1,4.2v0.1h-0.8L57.2,28.8z M54.9,28.1H57c0.6,0,1.1-0.2,1.4-0.6s0.5-0.9,0.5-1.5c0-0.7-0.2-1.2-0.5-1.6
		s-0.9-0.6-1.5-0.6h-1.9V28.1z"/>
	<path fill="#20313D" d="M68.3,29c0,1.3-0.3,2.3-0.8,3c-0.6,0.7-1.4,1.1-2.4,1.1c-1,0-1.8-0.4-2.4-1.1c-0.6-0.7-0.9-1.7-0.9-3v-2.2
		c0-1.3,0.3-2.3,0.9-3s1.4-1.1,2.4-1.1c1,0,1.8,0.4,2.4,1.1s0.8,1.7,0.8,3V29z M67.5,26.9c0-1.1-0.2-1.9-0.6-2.5s-1-0.8-1.8-0.8
		c-0.8,0-1.4,0.3-1.8,0.8s-0.6,1.3-0.7,2.4V29c0,1.1,0.2,1.9,0.6,2.5c0.4,0.5,1,0.8,1.8,0.8c0.8,0,1.4-0.3,1.8-0.8
		c0.4-0.5,0.6-1.4,0.6-2.5V26.9z"/>
	<path fill="#20313D" d="M77,32.9h-0.8l-4.7-8.5v8.5h-0.8V23h0.8l4.7,8.5V23H77V32.9z"/>
	<path fill="#20313D" d="M85.1,23.7h-2.8v9.2h-0.8v-9.2h-2.8V23h6.4V23.7z"/>
	<path fill="#20313D" d="M91.7,28.2h-3.9v4h4.4v0.7H87V23h5.2v0.7h-4.4v3.7h3.9V28.2z"/>
	<path fill="#20313D" d="M100.6,32.9h-0.8l-4.7-8.5v8.5h-0.8V23h0.8l4.7,8.5V23h0.8V32.9z"/>
	<path fill="#20313D" d="M103.2,32.9V23h2.3c1.1,0,1.9,0.3,2.6,1s1,1.6,1,2.9V29c0,1.2-0.3,2.2-1,2.9c-0.6,0.7-1.5,1.1-2.7,1.1
		H103.2z M104,23.7v8.5h1.5c0.9,0,1.6-0.3,2.1-0.8s0.7-1.3,0.8-2.4v-2.1c0-1-0.2-1.8-0.7-2.4s-1.2-0.8-2.1-0.8H104z"/>
	<path fill="#20313D" d="M116.3,27.5c-0.4-0.5-0.6-1-0.8-1.3s-0.2-0.7-0.2-1.1c0-0.7,0.2-1.3,0.5-1.7s0.8-0.6,1.4-0.6
		c0.5,0,1,0.2,1.3,0.6s0.5,0.8,0.5,1.4c0,0.7-0.3,1.3-0.9,1.9l-1,0.9l2.2,3.1c0.3-0.7,0.5-1.4,0.5-2.2h0.7c0,1.1-0.2,2.1-0.7,2.8
		l1.2,1.6h-0.9l-0.7-1c-0.3,0.3-0.6,0.6-1,0.8s-0.8,0.3-1.2,0.3c-0.8,0-1.4-0.2-1.9-0.7c-0.5-0.5-0.7-1.1-0.7-1.9
		c0-0.5,0.1-0.9,0.4-1.4S115.6,28.1,116.3,27.5z M117.2,32.4c0.7,0,1.3-0.3,1.8-1l-2.3-3.2l-0.1-0.1l-0.2,0.2
		c-0.7,0.7-1.1,1.4-1.1,2.1c0,0.6,0.2,1.1,0.5,1.4C116.2,32.2,116.6,32.4,117.2,32.4z M116,25.1c0,0.5,0.3,1.2,0.8,1.9l0.7-0.7
		c0.2-0.2,0.4-0.4,0.6-0.7s0.2-0.5,0.2-0.9c0-0.4-0.1-0.7-0.3-0.9s-0.5-0.4-0.8-0.4c-0.4,0-0.6,0.1-0.9,0.4S116,24.6,116,25.1z"/>
	<path fill="#20313D" d="M132,23V30c0,1-0.3,1.7-0.8,2.2c-0.5,0.5-1.2,0.8-2.2,0.8c-1,0-1.7-0.3-2.2-0.8c-0.5-0.5-0.8-1.3-0.8-2.3
		v-7h0.8v7c0,1.6,0.7,2.4,2.2,2.4c1.4,0,2.2-0.8,2.2-2.3V23H132z"/>
	<path fill="#20313D" d="M135.5,32.9h-0.8V23h0.8V32.9z"/>
	<path fill="#20313D" d="M141.7,32.9V23h2.3c1.1,0,1.9,0.3,2.6,1s1,1.6,1,2.9V29c0,1.2-0.3,2.2-1,2.9c-0.6,0.7-1.5,1.1-2.7,1.1
		H141.7z M142.5,23.7v8.5h1.5c0.9,0,1.6-0.3,2.1-0.8s0.7-1.3,0.8-2.4v-2.1c0-1-0.2-1.8-0.7-2.4s-1.2-0.8-2.1-0.8H142.5z"/>
	<path fill="#20313D" d="M154.7,28.2h-3.9v4h4.4v0.7H150V23h5.2v0.7h-4.4v3.7h3.9V28.2z"/>
	<path fill="#20313D" d="M162,30.5c0-0.6-0.2-1-0.5-1.3s-0.9-0.6-1.8-0.9s-1.5-0.6-1.9-1c-0.5-0.5-0.8-1.1-0.8-1.9
		c0-0.8,0.3-1.4,0.8-1.9s1.2-0.7,2-0.7c0.8,0,1.5,0.3,2.1,0.8s0.8,1.3,0.8,2.1h-0.8c0-0.7-0.2-1.2-0.6-1.6s-0.9-0.6-1.5-0.6
		c-0.6,0-1.1,0.2-1.5,0.5s-0.5,0.8-0.5,1.3c0,0.5,0.2,0.9,0.5,1.2s0.9,0.6,1.6,0.9s1.3,0.5,1.7,0.8s0.7,0.6,0.8,0.9s0.3,0.8,0.3,1.3
		c0,0.8-0.3,1.4-0.8,1.9c-0.5,0.5-1.2,0.7-2.1,0.7c-0.6,0-1.1-0.1-1.6-0.4s-0.9-0.6-1.1-1c-0.3-0.4-0.4-1-0.4-1.6h0.8
		c0,0.7,0.2,1.3,0.6,1.7c0.4,0.4,1,0.6,1.7,0.6c0.6,0,1.1-0.2,1.5-0.5C161.8,31.5,162,31.1,162,30.5z"/>
	<path fill="#20313D" d="M165.8,32.9H165V23h0.8V32.9z"/>
	<path fill="#20313D" d="M174.6,31.8c-0.3,0.4-0.8,0.8-1.3,1s-1.1,0.3-1.7,0.3c-1,0-1.8-0.3-2.4-1c-0.6-0.7-0.9-1.6-0.9-2.8v-2.4
		c0-1.3,0.3-2.2,0.8-2.9s1.3-1,2.4-1c0.9,0,1.6,0.3,2.2,0.8s0.8,1.2,0.9,2.2h-0.8c-0.1-0.8-0.3-1.3-0.7-1.7
		c-0.4-0.4-0.9-0.5-1.6-0.5c-0.8,0-1.4,0.3-1.8,0.8s-0.6,1.3-0.6,2.4v2.3c0,1,0.2,1.8,0.7,2.4c0.4,0.6,1.1,0.9,1.9,0.9
		c0.9,0,1.6-0.3,2.1-0.8v-2.6h-2.2v-0.7h3V31.8z"/>
	<path fill="#20313D" d="M183.4,32.9h-0.8l-4.7-8.5v8.5h-0.8V23h0.8l4.7,8.5V23h0.8V32.9z"/>
	<path fill="#20313D" d="M190.7,28.2h-3.9v4h4.4v0.7h-5.2V23h5.2v0.7h-4.4v3.7h3.9V28.2z"/>
	<path fill="#20313D" d="M196.5,28.8h-2.3v4.1h-0.8V23h2.7c0.9,0,1.6,0.3,2.1,0.8c0.5,0.5,0.7,1.2,0.7,2.2c0,0.6-0.2,1.2-0.5,1.7
		s-0.7,0.8-1.3,1l2.1,4.2v0.1h-0.8L196.5,28.8z M194.1,28.1h2.1c0.6,0,1.1-0.2,1.4-0.6s0.5-0.9,0.5-1.5c0-0.7-0.2-1.2-0.5-1.6
		s-0.9-0.6-1.5-0.6h-1.9V28.1z"/>
</g>
</svg>
